# xmcd CD database file
#
# Track frame offsets:
#	150
#	11390
#	24435
#	36020
#	49650
#	60262
#	72495
#	82397
#	94620
#	108980
#	129182
#	139267
#	153675
#	172205
#
# Disc length: 2465 seconds
#
# Revision: 0
# Processed by: cddbd v1.5.2PL0 Copyright (c) Steve Scherf et al.
# Submitted via: CDex 1.70beta2
#
DISCID=b8099f0e
DTITLE=Various Artist - Jazz Lite Vol 1
DYEAR=1997
DGENRE=Jazz
TTITLE0=Gerry Mulligan Quartet - Five Brothers
TTITLE1=Holllywood Jazz Ensemble - Mothers Whistler
TTITLE2=Shorty Rogers Quintet - Casa De Luz
TTITLE3=Hollywood Jazz Ensemble - Two Suites for Love
TTITLE4=Shelly Manne and His Men - On Green Dolphin Street
TTITLE5=Hollywood Jazz Ensemble - That Old Feeling
TTITLE6=Chico Hamilton Quintet - Transfusion
TTITLE7=Hollywood Jazz Ensemble - Down Home
TTITLE8=Gerry Mulligan Quartet - Walkin' Shoes
TTITLE9=Hollywood Jazz Ensemble - Darn That Dream
TTITLE10=Shorty Rogers Quintet - Paul's Pal
TTITLE11=Hollywood Jazz Ensemble - Thinking of Russ
TTITLE12=Shelly Manne and his Men - Steve
TTITLE13=Hollywood Jazz Ensemble - Along About F
EXTD=YEAR: 1997
EXTT0=
EXTT1=
EXTT2=
EXTT3=
EXTT4=
EXTT5=
EXTT6=
EXTT7=
EXTT8=
EXTT9=
EXTT10=
EXTT11=
EXTT12=
EXTT13=
PLAYORDER=
